# xmcd
#
# Track frame offsets: 
#        150
#        13196
#        24726
#        37885
#        50830
#        60596
#        77610
#        92119
#        102569
#        117410
#        131632
#
# Disc length: 2008 seconds
#
# Revision: 0
# Processed by: cddbd v1.5.1PL2 Copyright (c) Steve Scherf et al.
# Submitted via: ExactAudioCopy v0.95b2
#
DISCID=9307d60b
DTITLE=Johnny Berry and the Outliers - Fegenbush Farm
DYEAR=2006
DGENRE=Country
TTITLE0=Last of a Dying Breed
TTITLE1=Another Place, Another Time
TTITLE2=Lying Down
TTITLE3=One Step Closer This Time
TTITLE4=Big Black Hole
TTITLE5=Falling Angel
TTITLE6=Roanoke on the Run
TTITLE7=Don't You Worry 'Bout Me
TTITLE8=Mean Eyed Cat
TTITLE9=The End
TTITLE10=The Winter Sparrow
EXTD=
EXTT0=
EXTT1=
EXTT2=
EXTT3=
EXTT4=
EXTT5=
EXTT6=
EXTT7=
EXTT8=
EXTT9=
EXTT10=
PLAYORDER=
